# xmcd CD database file
#
# Track frame offsets:
#	150
#	34490
#	61825
#	81211
#	104226
#	123301
#	143965
#	174735
#	204292
#	230025
#	246592
#	263558
#	276735
#
# Disc length: 4051 seconds
#
# Revision: 1
# Processed by: cddbd v1.5.1PL0 Copyright (c) Steve Scherf et al.
# Submitted via: CDex 1.51
#
DISCID=ce0fd10d
DTITLE=Various Artist - The Vibe! Vol.07 The Ultimate rare Groove Series
DYEAR=2004
DGENRE=Jazz
TTITLE0=Weldon Irvin/Music Is The Key
TTITLE1=Lonnie Liston Smith and The Cosmic Echoes/Footprints
TTITLE2=Bobby Few/Everybody Has The Right To Be Free
TTITLE3=Nina Simone/Funkier Than A Mosquito Tweeter
TTITLE4=Gato Barbieri/Tupac Amaru
TTITLE5=Gil Scott-Heron/The Vulture
TTITLE6=Count Basie and His Orchestra/Kilimandjaro
TTITLE7=Jon Lucien/Listen Love
TTITLE8=Leon Thomas/Echoes
TTITLE9=Esther Marrow/Walk Tall (Baby That's What I Need)
TTITLE10=Harold Alexander/Tite Rope
TTITLE11=Barney Wilen/Bélier
TTITLE12=Oliver Nelson/Skull Session
EXTD=YEAR: 2004
EXTT0=
EXTT1=
EXTT2=
EXTT3=
EXTT4=
EXTT5=
EXTT6=
EXTT7=
EXTT8=
EXTT9=
EXTT10=
EXTT11=
EXTT12=
PLAYORDER=
